<mxfile host="app.diagrams.net" modified="2021-12-11T14:51:11.993Z" agent="5.0 (Windows)" etag="JCzLQyDtGLp9z1JOGuEg" version="15.9.4" type="github">
  <diagram id="9DWNqOliDgodK-CukeeV" name="Page-1">
    <mxGraphModel dx="914" dy="408" grid="1" gridSize="10" guides="1" tooltips="1" connect="1" arrows="1" fold="1" page="1" pageScale="1" pageWidth="850" pageHeight="1100" math="0" shadow="0">
      <root>
        <mxCell id="0" />
        <mxCell id="1" parent="0" />
        <mxCell id="FaGI9EGRksaXrigEexfV-1" value="&lt;h1 style=&quot;font-size: 20px&quot;&gt;Setup Code State&lt;br&gt;&lt;/h1&gt;&lt;p style=&quot;font-size: 14px&quot;&gt;&lt;span&gt;&lt;span style=&quot;font-weight: normal&quot;&gt;Before byte code function goes for executing on the virtual machine; code_sate should be initial and all given input arguments of function must copy on the code_state-&amp;gt;state[]. it also must be set with appropriate ip and stack pointer values. Before calling mp_setup_code_state(), code_state should be allocated in stack or heap and initialize with the following valid data: 1- code_state -&amp;gt; fun_bc should contain a pointer to the function object. 2- code_state -&amp;gt;ip should contain offset from bytecode. 3- code_state -&amp;gt;bytecode should point to baytecode.&lt;/span&gt;&lt;br&gt;&lt;/span&gt;&lt;/p&gt;" style="text;html=1;strokeColor=none;fillColor=none;spacing=5;spacingTop=-20;whiteSpace=wrap;overflow=hidden;rounded=0;fontStyle=1" parent="1" vertex="1">
          <mxGeometry x="30" y="30" width="800" height="130" as="geometry" />
        </mxCell>
        <mxCell id="DEH-Oupzx9P6uAduSgyf-2" value="&lt;h1 style=&quot;font-size: 20px&quot;&gt;Input Arguments Format&lt;br&gt;&lt;/h1&gt;&lt;p style=&quot;font-size: 14px&quot;&gt;function mp_setup_code_state() give code_state, n_args, n_kw and args is it inputs. the below figure shows the structure of args.&lt;br&gt;&lt;/p&gt;" style="text;html=1;strokeColor=none;fillColor=none;spacing=5;spacingTop=-20;whiteSpace=wrap;overflow=hidden;rounded=0;" parent="1" vertex="1">
          <mxGeometry x="30" y="200" width="810" height="80" as="geometry" />
        </mxCell>
        <mxCell id="DEH-Oupzx9P6uAduSgyf-3" value="" style="rounded=0;whiteSpace=wrap;html=1;fontSize=14;fillColor=#E6E6E6;fontColor=#333333;strokeColor=#666666;" parent="1" vertex="1">
          <mxGeometry x="160" y="326" width="560" height="60" as="geometry" />
        </mxCell>
        <mxCell id="DEH-Oupzx9P6uAduSgyf-7" style="edgeStyle=orthogonalEdgeStyle;rounded=0;orthogonalLoop=1;jettySize=auto;html=1;entryX=0;entryY=1;entryDx=0;entryDy=0;fontSize=14;" parent="1" source="DEH-Oupzx9P6uAduSgyf-6" target="DEH-Oupzx9P6uAduSgyf-3" edge="1">
          <mxGeometry relative="1" as="geometry" />
        </mxCell>
        <mxCell id="DEH-Oupzx9P6uAduSgyf-6" value="args" style="text;html=1;strokeColor=none;fillColor=none;align=center;verticalAlign=middle;whiteSpace=wrap;rounded=0;fontSize=14;fontStyle=1" parent="1" vertex="1">
          <mxGeometry x="130" y="426" width="60" height="30" as="geometry" />
        </mxCell>
        <mxCell id="DEH-Oupzx9P6uAduSgyf-8" value="" style="endArrow=classic;startArrow=classic;html=1;rounded=0;fontSize=14;" parent="1" edge="1">
          <mxGeometry width="50" height="50" relative="1" as="geometry">
            <mxPoint x="170" y="406" as="sourcePoint" />
            <mxPoint x="720" y="406" as="targetPoint" />
          </mxGeometry>
        </mxCell>
        <mxCell id="DEH-Oupzx9P6uAduSgyf-10" value="n_args" style="edgeLabel;html=1;align=center;verticalAlign=middle;resizable=0;points=[];fontSize=14;fontStyle=1" parent="DEH-Oupzx9P6uAduSgyf-8" vertex="1" connectable="0">
          <mxGeometry x="-0.0571" relative="1" as="geometry">
            <mxPoint as="offset" />
          </mxGeometry>
        </mxCell>
        <mxCell id="DEH-Oupzx9P6uAduSgyf-11" value="" style="endArrow=classic;startArrow=classic;html=1;rounded=0;fontSize=14;" parent="1" edge="1">
          <mxGeometry width="50" height="50" relative="1" as="geometry">
            <mxPoint x="440" y="441" as="sourcePoint" />
            <mxPoint x="720" y="441" as="targetPoint" />
            <Array as="points">
              <mxPoint x="540" y="441" />
            </Array>
          </mxGeometry>
        </mxCell>
        <mxCell id="DEH-Oupzx9P6uAduSgyf-12" value="n_kw" style="edgeLabel;html=1;align=center;verticalAlign=middle;resizable=0;points=[];fontSize=14;fontStyle=1" parent="DEH-Oupzx9P6uAduSgyf-11" vertex="1" connectable="0">
          <mxGeometry x="-0.0571" relative="1" as="geometry">
            <mxPoint as="offset" />
          </mxGeometry>
        </mxCell>
        <mxCell id="DEH-Oupzx9P6uAduSgyf-13" value="Name0, Value0" style="rounded=0;whiteSpace=wrap;html=1;fontSize=14;fontStyle=1;fillColor=#d5e8d4;strokeColor=#82b366;" parent="1" vertex="1">
          <mxGeometry x="440" y="326" width="50" height="60" as="geometry" />
        </mxCell>
        <mxCell id="DEH-Oupzx9P6uAduSgyf-16" value="Name1, Value1" style="rounded=0;whiteSpace=wrap;html=1;fontSize=14;fontStyle=1;fillColor=#dae8fc;strokeColor=#6c8ebf;" parent="1" vertex="1">
          <mxGeometry x="490" y="326" width="50" height="60" as="geometry" />
        </mxCell>
        <mxCell id="DEH-Oupzx9P6uAduSgyf-20" value="" style="endArrow=none;dashed=1;html=1;dashPattern=1 3;strokeWidth=3;rounded=0;fontSize=14;entryX=1;entryY=0.5;entryDx=0;entryDy=0;exitX=1;exitY=0.5;exitDx=0;exitDy=0;" parent="1" source="DEH-Oupzx9P6uAduSgyf-16" target="DEH-Oupzx9P6uAduSgyf-3" edge="1">
          <mxGeometry width="50" height="50" relative="1" as="geometry">
            <mxPoint x="390" y="306" as="sourcePoint" />
            <mxPoint x="440" y="256" as="targetPoint" />
          </mxGeometry>
        </mxCell>
        <mxCell id="DEH-Oupzx9P6uAduSgyf-21" value="&amp;nbsp;Positional Arguments&amp;nbsp; " style="shape=flexArrow;endArrow=classic;startArrow=classic;html=1;rounded=0;fontSize=14;strokeWidth=1;labelBackgroundColor=#FFFFFF;" parent="1" edge="1">
          <mxGeometry width="100" height="100" relative="1" as="geometry">
            <mxPoint x="160" y="308" as="sourcePoint" />
            <mxPoint x="440" y="308" as="targetPoint" />
          </mxGeometry>
        </mxCell>
        <mxCell id="DEH-Oupzx9P6uAduSgyf-23" value="&amp;nbsp;keywords arguments&amp;nbsp; " style="shape=flexArrow;endArrow=classic;startArrow=classic;html=1;rounded=0;labelBackgroundColor=#FFFFFF;fontSize=14;strokeWidth=1;" parent="1" edge="1">
          <mxGeometry width="100" height="100" relative="1" as="geometry">
            <mxPoint x="440" y="308" as="sourcePoint" />
            <mxPoint x="720" y="308" as="targetPoint" />
            <Array as="points">
              <mxPoint x="580" y="308" />
            </Array>
          </mxGeometry>
        </mxCell>
        <mxCell id="DEH-Oupzx9P6uAduSgyf-41" style="edgeStyle=orthogonalEdgeStyle;rounded=0;orthogonalLoop=1;jettySize=auto;html=1;entryX=0.5;entryY=0;entryDx=0;entryDy=0;entryPerimeter=0;labelBackgroundColor=#FFFFFF;fontSize=12;strokeWidth=1;" parent="1" edge="1">
          <mxGeometry relative="1" as="geometry">
            <mxPoint x="680" y="760" as="sourcePoint" />
          </mxGeometry>
        </mxCell>
        <mxCell id="DEH-Oupzx9P6uAduSgyf-54" value="" style="rounded=0;whiteSpace=wrap;html=1;fontSize=12;" parent="1" vertex="1">
          <mxGeometry x="120" y="550" width="680" height="60" as="geometry" />
        </mxCell>
        <mxCell id="DEH-Oupzx9P6uAduSgyf-55" value="posional" style="rounded=0;whiteSpace=wrap;html=1;fontSize=14;fillColor=#eeeeee;strokeColor=#36393d;fontStyle=1" parent="1" vertex="1">
          <mxGeometry x="620" y="550" width="180" height="60" as="geometry" />
        </mxCell>
        <mxCell id="DEH-Oupzx9P6uAduSgyf-57" value="kw-only" style="rounded=0;whiteSpace=wrap;html=1;fontSize=14;fillColor=#f9f7ed;strokeColor=#36393d;fontStyle=1" parent="1" vertex="1">
          <mxGeometry x="510" y="550" width="110" height="60" as="geometry" />
        </mxCell>
        <mxCell id="DEH-Oupzx9P6uAduSgyf-59" style="edgeStyle=orthogonalEdgeStyle;rounded=0;orthogonalLoop=1;jettySize=auto;html=1;entryX=0;entryY=1;entryDx=0;entryDy=0;labelBackgroundColor=#FFFFFF;fontSize=12;strokeWidth=1;" parent="1" source="DEH-Oupzx9P6uAduSgyf-58" target="DEH-Oupzx9P6uAduSgyf-54" edge="1">
          <mxGeometry relative="1" as="geometry" />
        </mxCell>
        <mxCell id="DEH-Oupzx9P6uAduSgyf-58" value="state" style="text;html=1;strokeColor=none;fillColor=none;align=center;verticalAlign=middle;whiteSpace=wrap;rounded=0;fontSize=18;fontStyle=1" parent="1" vertex="1">
          <mxGeometry x="90" y="650" width="60" height="30" as="geometry" />
        </mxCell>
        <mxCell id="DEH-Oupzx9P6uAduSgyf-71" style="edgeStyle=orthogonalEdgeStyle;rounded=0;orthogonalLoop=1;jettySize=auto;html=1;entryX=1;entryY=1;entryDx=0;entryDy=0;labelBackgroundColor=#FFFFFF;fontSize=14;strokeWidth=1;" parent="1" source="DEH-Oupzx9P6uAduSgyf-60" target="DEH-Oupzx9P6uAduSgyf-57" edge="1">
          <mxGeometry relative="1" as="geometry" />
        </mxCell>
        <mxCell id="DEH-Oupzx9P6uAduSgyf-60" value="d" style="text;html=1;strokeColor=none;fillColor=none;align=center;verticalAlign=middle;whiteSpace=wrap;rounded=0;fontSize=18;fontStyle=1" parent="1" vertex="1">
          <mxGeometry x="590" y="645" width="60" height="30" as="geometry" />
        </mxCell>
        <mxCell id="DEH-Oupzx9P6uAduSgyf-63" value="" style="endArrow=classic;startArrow=classic;html=1;rounded=0;labelBackgroundColor=#FFFFFF;fontSize=18;strokeWidth=1;" parent="1" edge="1">
          <mxGeometry width="50" height="50" relative="1" as="geometry">
            <mxPoint x="620" y="530" as="sourcePoint" />
            <mxPoint x="800" y="530" as="targetPoint" />
          </mxGeometry>
        </mxCell>
        <mxCell id="DEH-Oupzx9P6uAduSgyf-64" value="&amp;nbsp;n_pos_args&amp;nbsp; " style="edgeLabel;html=1;align=center;verticalAlign=middle;resizable=0;points=[];fontSize=18;" parent="DEH-Oupzx9P6uAduSgyf-63" vertex="1" connectable="0">
          <mxGeometry x="-0.0862" y="-4" relative="1" as="geometry">
            <mxPoint y="-6" as="offset" />
          </mxGeometry>
        </mxCell>
        <mxCell id="DEH-Oupzx9P6uAduSgyf-65" value="" style="endArrow=classic;html=1;rounded=0;labelBackgroundColor=#FFFFFF;fontSize=18;strokeWidth=1;" parent="1" edge="1">
          <mxGeometry width="50" height="50" relative="1" as="geometry">
            <mxPoint x="630" y="635" as="sourcePoint" />
            <mxPoint x="700" y="635" as="targetPoint" />
          </mxGeometry>
        </mxCell>
        <mxCell id="DEH-Oupzx9P6uAduSgyf-66" value="" style="rounded=0;whiteSpace=wrap;html=1;fontSize=14;fillColor=#ffff88;strokeColor=#36393d;" parent="1" vertex="1">
          <mxGeometry x="640" y="720" width="140" height="60" as="geometry" />
        </mxCell>
        <mxCell id="DEH-Oupzx9P6uAduSgyf-69" style="edgeStyle=orthogonalEdgeStyle;rounded=0;orthogonalLoop=1;jettySize=auto;html=1;entryX=0;entryY=1;entryDx=0;entryDy=0;labelBackgroundColor=#FFFFFF;fontSize=14;strokeWidth=1;" parent="1" source="DEH-Oupzx9P6uAduSgyf-68" target="DEH-Oupzx9P6uAduSgyf-66" edge="1">
          <mxGeometry relative="1" as="geometry" />
        </mxCell>
        <mxCell id="DEH-Oupzx9P6uAduSgyf-68" value="extra_args" style="text;html=1;strokeColor=none;fillColor=none;align=center;verticalAlign=middle;whiteSpace=wrap;rounded=0;fontSize=18;fontStyle=1" parent="1" vertex="1">
          <mxGeometry x="610" y="830" width="60" height="30" as="geometry" />
        </mxCell>
        <mxCell id="DEH-Oupzx9P6uAduSgyf-70" value="+1" style="text;html=1;strokeColor=none;fillColor=none;align=center;verticalAlign=middle;whiteSpace=wrap;rounded=0;fontSize=14;" parent="1" vertex="1">
          <mxGeometry x="648.5" y="610" width="27.5" height="29" as="geometry" />
        </mxCell>
        <mxCell id="DEH-Oupzx9P6uAduSgyf-72" value="" style="rounded=0;whiteSpace=wrap;html=1;fontSize=14;fillColor=#eeeeee;strokeColor=#36393d;" parent="1" vertex="1">
          <mxGeometry x="640" y="720" width="110" height="60" as="geometry" />
        </mxCell>
        <mxCell id="DEH-Oupzx9P6uAduSgyf-74" style="edgeStyle=orthogonalEdgeStyle;rounded=0;orthogonalLoop=1;jettySize=auto;html=1;entryX=1;entryY=1;entryDx=0;entryDy=0;labelBackgroundColor=#FFFFFF;fontSize=14;strokeWidth=1;" parent="1" source="DEH-Oupzx9P6uAduSgyf-73" target="DEH-Oupzx9P6uAduSgyf-72" edge="1">
          <mxGeometry relative="1" as="geometry" />
        </mxCell>
        <mxCell id="DEH-Oupzx9P6uAduSgyf-73" value="s" style="text;html=1;strokeColor=none;fillColor=none;align=center;verticalAlign=middle;whiteSpace=wrap;rounded=0;fontSize=18;fontStyle=1" parent="1" vertex="1">
          <mxGeometry x="720" y="820" width="60" height="30" as="geometry" />
        </mxCell>
        <mxCell id="DEH-Oupzx9P6uAduSgyf-75" value="" style="endArrow=classic;startArrow=classic;html=1;rounded=0;labelBackgroundColor=#FFFFFF;fontSize=14;strokeWidth=1;" parent="1" edge="1">
          <mxGeometry width="50" height="50" relative="1" as="geometry">
            <mxPoint x="640" y="707" as="sourcePoint" />
            <mxPoint x="750" y="707" as="targetPoint" />
          </mxGeometry>
        </mxCell>
        <mxCell id="DEH-Oupzx9P6uAduSgyf-76" value="&amp;nbsp; n_def_pos_args&amp;nbsp; " style="edgeLabel;html=1;align=center;verticalAlign=middle;resizable=0;points=[];fontSize=14;fontStyle=1" parent="DEH-Oupzx9P6uAduSgyf-75" vertex="1" connectable="0">
          <mxGeometry x="-0.2596" y="-4" relative="1" as="geometry">
            <mxPoint x="12" y="-19" as="offset" />
          </mxGeometry>
        </mxCell>
        <mxCell id="DEH-Oupzx9P6uAduSgyf-77" value="" style="endArrow=classic;html=1;rounded=0;labelBackgroundColor=#FFFFFF;fontSize=14;strokeWidth=1;" parent="1" edge="1">
          <mxGeometry width="50" height="50" relative="1" as="geometry">
            <mxPoint x="730" y="800" as="sourcePoint" />
            <mxPoint x="660" y="800" as="targetPoint" />
          </mxGeometry>
        </mxCell>
        <mxCell id="DEH-Oupzx9P6uAduSgyf-78" value="-1" style="text;html=1;strokeColor=none;fillColor=none;align=center;verticalAlign=middle;whiteSpace=wrap;rounded=0;fontSize=14;" parent="1" vertex="1">
          <mxGeometry x="686.25" y="801" width="27.5" height="29" as="geometry" />
        </mxCell>
        <mxCell id="DEH-Oupzx9P6uAduSgyf-79" value="" style="endArrow=none;html=1;rounded=0;labelBackgroundColor=#FFFFFF;fontSize=14;strokeWidth=1;exitX=0.832;exitY=0.021;exitDx=0;exitDy=0;exitPerimeter=0;" parent="1" edge="1">
          <mxGeometry width="50" height="50" relative="1" as="geometry">
            <mxPoint x="736.3199999999999" y="721.26" as="sourcePoint" />
            <mxPoint x="736" y="780" as="targetPoint" />
          </mxGeometry>
        </mxCell>
        <mxCell id="DEH-Oupzx9P6uAduSgyf-80" value="" style="endArrow=none;html=1;rounded=0;labelBackgroundColor=#FFFFFF;fontSize=14;strokeWidth=1;exitX=0.832;exitY=0.021;exitDx=0;exitDy=0;exitPerimeter=0;" parent="1" edge="1">
          <mxGeometry width="50" height="50" relative="1" as="geometry">
            <mxPoint x="722.3199999999999" y="720" as="sourcePoint" />
            <mxPoint x="722.0000000000002" y="778.74" as="targetPoint" />
          </mxGeometry>
        </mxCell>
        <mxCell id="DEH-Oupzx9P6uAduSgyf-81" value="" style="endArrow=none;html=1;rounded=0;labelBackgroundColor=#FFFFFF;fontSize=14;strokeWidth=1;exitX=0.832;exitY=0.021;exitDx=0;exitDy=0;exitPerimeter=0;" parent="1" edge="1">
          <mxGeometry width="50" height="50" relative="1" as="geometry">
            <mxPoint x="708.3199999999999" y="720" as="sourcePoint" />
            <mxPoint x="708.0000000000002" y="778.74" as="targetPoint" />
          </mxGeometry>
        </mxCell>
        <mxCell id="DEH-Oupzx9P6uAduSgyf-82" value="" style="endArrow=none;html=1;rounded=0;labelBackgroundColor=#FFFFFF;fontSize=14;strokeWidth=1;exitX=0.832;exitY=0.021;exitDx=0;exitDy=0;exitPerimeter=0;" parent="1" edge="1">
          <mxGeometry width="50" height="50" relative="1" as="geometry">
            <mxPoint x="633.8199999999999" y="550" as="sourcePoint" />
            <mxPoint x="633.5000000000002" y="608.74" as="targetPoint" />
          </mxGeometry>
        </mxCell>
        <mxCell id="DEH-Oupzx9P6uAduSgyf-83" value="" style="endArrow=none;html=1;rounded=0;labelBackgroundColor=#FFFFFF;fontSize=14;strokeWidth=1;exitX=0.832;exitY=0.021;exitDx=0;exitDy=0;exitPerimeter=0;" parent="1" edge="1">
          <mxGeometry width="50" height="50" relative="1" as="geometry">
            <mxPoint x="648.8199999999999" y="550" as="sourcePoint" />
            <mxPoint x="648.5000000000002" y="608.74" as="targetPoint" />
          </mxGeometry>
        </mxCell>
        <mxCell id="DEH-Oupzx9P6uAduSgyf-84" value="" style="endArrow=none;html=1;rounded=0;labelBackgroundColor=#FFFFFF;fontSize=14;strokeWidth=1;exitX=0.832;exitY=0.021;exitDx=0;exitDy=0;exitPerimeter=0;" parent="1" edge="1">
          <mxGeometry width="50" height="50" relative="1" as="geometry">
            <mxPoint x="663.9499999999999" y="550" as="sourcePoint" />
            <mxPoint x="663.6300000000002" y="608.74" as="targetPoint" />
          </mxGeometry>
        </mxCell>
      </root>
    </mxGraphModel>
  </diagram>
</mxfile>
